#N canvas 571 339 748 247 10;
#X obj 198 188 OSCtx;
#X msg 272 180 setAddress 226.0.0.1 54324;
#X msg 91 101 /SPIN/spinic/myuserid setTranslation \$1 \$2 \$3;
#X obj 91 22 nbx 5 14 -1e+37 1e+37 0 0 empty empty empty 0 -8 0 10
-262144 -1 -1 -1 256;
#X obj 95 70 pack 0 0 0;
#X obj 117 48 t b f;
#X obj 168 49 t b f;
#X obj 233 27 nbx 5 14 -1e+37 1e+37 0 0 empty empty empty 0 -8 0 10
-262144 -1 -1 1 256;
#X obj 157 25 nbx 5 14 -1e+37 1e+37 0 0 empty empty empty 0 -8 0 10
-262144 -1 -1 0 256;
#X obj 391 7 nbx 5 14 -1e+37 1e+37 0 0 empty empty empty 0 -8 0 10
-262144 -1 -1 -15 256;
#X obj 395 55 pack 0 0 0;
#X obj 417 33 t b f;
#X obj 468 34 t b f;
#X obj 533 12 nbx 5 14 -1e+37 1e+37 0 0 empty empty empty 0 -8 0 10
-262144 -1 -1 139 256;
#X obj 457 10 nbx 5 14 -1e+37 1e+37 0 0 empty empty empty 0 -8 0 10
-262144 -1 -1 -2 256;
#X msg 391 86 /SPIN/spinic/myuserid setOrientation \$1 \$2 \$3;
#X msg 388 144 /SPIN/spinic/myuserid-seenby-dummy setLighting 0;
#X connect 1 0 0 0;
#X connect 2 0 0 0;
#X connect 3 0 4 0;
#X connect 4 0 2 0;
#X connect 5 0 4 0;
#X connect 5 1 4 1;
#X connect 6 0 4 0;
#X connect 6 1 4 2;
#X connect 7 0 6 0;
#X connect 8 0 5 0;
#X connect 9 0 10 0;
#X connect 10 0 15 0;
#X connect 11 0 10 0;
#X connect 11 1 10 1;
#X connect 12 0 10 0;
#X connect 12 1 10 2;
#X connect 13 0 12 0;
#X connect 14 0 11 0;
#X connect 15 0 0 0;
#X connect 16 0 0 0;
